<?xml version="1.0" encoding="iso-8859-1"?>
<!-- Generator: Adobe Illustrator 19.0.0, SVG Export Plug-In . SVG Version: 6.00 Build 0)  -->
<svg version="1.1" id="Layer_1" xmlns="http://www.w3.org/2000/svg" xmlns:xlink="http://www.w3.org/1999/xlink" x="0px" y="0px"
	 viewBox="0 0 488.8 488.8" style="enable-background:new 0 0 488.8 488.8;" xml:space="preserve">
<path style="opacity:0.2;fill:#B2B2B2;enable-background:new    ;" d="M396.8,119.2h-25.6c0-3.2-0.8-7.2-0.8-10.4
	c0-2.4-0.8-5.6-1.6-8c0-0.8,0-0.8,0-1.6c-4-21.6-13.6-40.8-27.2-56h55.2c4,0,7.2-0.8,10.4-2.4c0,0,0,0,0.8,0c3.2-1.6,5.6-4.8,8-8
	c0,0,0,0,0-0.8c0.8-1.6,1.6-3.2,2.4-4.8l0,0l0,0c0.8-1.6,0.8-3.2,0.8-5.6c0-12-9.6-21.6-21.6-21.6H247.2h-84.8h-47.2
	c-12,0-21.6,9.6-21.6,21.6s9.6,21.6,21.6,21.6h47.2H248c42.4,0,76.8,32.8,80,73.6l0,0c0,0.8,0,1.6,0,2.4h-3.2H115.2
	c-12,0-21.6,9.6-21.6,21.6s9.6,21.6,21.6,21.6h166.4h45.6c-6.4,38.4-39.2,68-80,68h-33.6h-52c-8,0-15.2,4-19.2,11.2
	s-3.2,15.2,0.8,22.4l14.4,21.6l0,0l128,193.6c4,6.4,11.2,9.6,18.4,9.6c4,0,8-0.8,12-4c9.6-6.4,12.8-20,6.4-29.6l-120-182.4h44.8
	c64,0,116.8-48.8,123.2-111.2h26.4c12,0,21.6-9.6,21.6-21.6S408.8,119.2,396.8,119.2z"/>
<path style="fill:#12DB55;" d="M372.8,119.2h-25.6c-0.8-28.8-12-56-29.6-76h55.2c12,0,21.6-9.6,21.6-21.6S384.8,0,372.8,0H223.2
	h-84.8H91.2c-12,0-21.6,9.6-21.6,21.6s9.6,21.6,21.6,21.6h47.2H224c43.2,0,78.4,33.6,80.8,76H91.2c-12,0-21.6,9.6-21.6,21.6
	s9.6,21.6,21.6,21.6h212c-6.4,38.4-39.2,68-80,68h-84.8c-8,0-15.2,4-19.2,11.2c-4,7.2-3.2,15.2,0.8,22.4l143.2,215.2
	c4,6.4,11.2,9.6,18.4,9.6c4,0,8-0.8,12-4c9.6-6.4,12.8-20,6.4-29.6L178.4,272.8h44.8c64,0,116.8-48.8,123.2-111.2h26.4
	c12,0,21.6-9.6,21.6-21.6S384.8,119.2,372.8,119.2z"/>
<g>
	<path style="fill:#19BF55;" d="M372.8,119.2h-25.6c-0.8-13.6-3.2-26.4-8-38.4L304,116c0,0.8,0,1.6,0,2.4h-3.2l-43.2,43.2h45.6
		c-6.4,38.4-39.2,68-80,68h-33.6l-55.2,55.2l128,193.6c4,6.4,11.2,9.6,18.4,9.6c4,0,8-0.8,12-4c9.6-6.4,12.8-20,6.4-29.6
		L178.4,272.8h44.8c64,0,116.8-48.8,123.2-111.2h26.4c12,0,21.6-9.6,21.6-21.6S384.8,119.2,372.8,119.2z"/>
	<path style="fill:#19BF55;" d="M393.6,26.4l-16,16C385.6,40,392,34.4,393.6,26.4z"/>
</g>
<g>
</g>
<g>
</g>
<g>
</g>
<g>
</g>
<g>
</g>
<g>
</g>
<g>
</g>
<g>
</g>
<g>
</g>
<g>
</g>
<g>
</g>
<g>
</g>
<g>
</g>
<g>
</g>
<g>
</g>
</svg>
