<?xml version="1.0" encoding="utf-8"?>
<!-- Generator: Adobe Illustrator 24.1.1, SVG Export Plug-In . SVG Version: 6.00 Build 0)  -->
<svg version="1.1" id="Layer_1" xmlns="http://www.w3.org/2000/svg" xmlns:xlink="http://www.w3.org/1999/xlink" x="0px" y="0px"
	 viewBox="0 0 512 512" style="enable-background:new 0 0 512 512;" xml:space="preserve">
<style type="text/css">
	.st0{fill-rule:evenodd;clip-rule:evenodd;}
</style>
<g>
	<path class="st0" d="M0,48C0,21.5,21.5,0,48,0h416c26.5,0,48,21.5,48,48v416c0,26.5-21.5,48-48,48H48c-26.5,0-48-21.5-48-48V48z
		 M48,32c-8.8,0-16,7.2-16,16v112h128V32H48z M160,192H32v128h128V192z M192,320V192h128v128H192z M160,352H32v112
		c0,8.8,7.2,16,16,16h112V352z M192,352h128v128H192V352z M352,352v128h112c8.8,0,16-7.2,16-16V352H352z M352,320h128V192H352V320z
		 M352,160h128V48c0-8.8-7.2-16-16-16H352V160z M320,160H192V32h128V160z"/>
</g>
</svg>
